# xmcd CD database file generated by OrangeCD 6.4
#
# Track frame offsets:
#	150
#	16103
#	33422
#	49415
#	65301
#	79819
#	100575
#	116250
#	130206
#	146509
#	158510
#	172791
#	185200
#	204397
#	223054
#	239656
#	256513
#	273070
#	294003
#	310976
#	324218
#	337616
#
# Disc length: 4700 seconds
#
# Revision: 0
# Processed by: cddbd v1.5.2PL0 Copyright (c) Steve Scherf et al.
# Submitted via: OrangeCD 6.4
#
DISCID=1f125a16
DTITLE=Various Artist - Hit Country 2012
DYEAR=1900
DGENRE=Country
TTITLE0=Honey Bee - Blake Shelton
TTITLE1=Bleed Red - Ronnie Dunn
TTITLE2=Little Bird - Kasey Chambers
TTITLE3=Honky Country Boys - Jasmine Rae
TTITLE4=Am I The Only One - Dierks Bentley
TTITLE5=Old Alabama - Brad Paisley
TTITLE6=Hard Work - Mcalister Kemp
TTITLE7=Sweet Emmylou - Catherine Britt
TTITLE8=From A Table Away - Sunny Sweeny
TTITLE9=Songs Like This - Carrie Underwood
TTITLE10=Joe Nichols - The Shape I'm In
TTITLE11=Shane Nicholson - Bad Machines
TTITLE12=Doc Walker - Coming Home
TTITLE13=Emerson Drive - Let Your Love Speak
TTITLE14=Chris Young - Tomorrow
TTITLE15=The McClymonts - A Woman Is A Flame
TTITLE16=Darius Rucker - This
TTITLE17=Dean Brody - Trail In Life
TTITLE18=Shea Fisher - What He Did To Me
TTITLE19=Steve Forde - How Long
TTITLE20=Peter McWhirter - Girls In The Summertime
TTITLE21=Corey Colum - West Australian Woman
EXTD=
EXTT0=
EXTT1=
EXTT2=
EXTT3=
EXTT4=
EXTT5=
EXTT6=
EXTT7=
EXTT8=
EXTT9=
EXTT10=
EXTT11=
EXTT12=
EXTT13=
EXTT14=
EXTT15=
EXTT16=
EXTT17=
EXTT18=
EXTT19=
EXTT20=
EXTT21=
PLAYORDER=
